<svg width="200" height="80" viewBox="0 0 200 80" fill="none" xmlns="http://www.w3.org/2000/svg">
<path d="M3.825 48V11.535H12.75V28.569L12.342 34.791H12.444C13.532 32.241 14.552 30.167 15.504 28.569L25.602 11.535H34.629V48H25.704V31.017L26.112 24.795H26.01C24.922 27.345 23.902 29.419 22.95 31.017L12.801 48H3.825ZM42.2742 48V11.535H51.1992V26.121H64.4592V11.535H73.3842V48H64.4592V33.72H51.1992V48H42.2742ZM81.0223 48V11.535H89.9473V25.611H93.6193L101.167 11.535H110.755L100.912 28.977V29.079L111.316 48H101.32L93.6193 33.21H89.9473V48H81.0223ZM112.353 29.538C112.353 24.268 114.155 19.848 117.759 16.278C121.397 12.708 125.953 10.923 131.427 10.923C136.901 10.923 141.44 12.708 145.044 16.278C148.682 19.848 150.501 24.268 150.501 29.538C150.501 34.944 148.682 39.483 145.044 43.155C141.44 46.793 136.901 48.612 131.427 48.612C125.953 48.612 121.397 46.793 117.759 43.155C114.155 39.483 112.353 34.944 112.353 29.538ZM121.584 29.538C121.584 32.632 122.536 35.233 124.44 37.341C126.344 39.415 128.673 40.452 131.427 40.452C134.181 40.452 136.51 39.415 138.414 37.341C140.318 35.233 141.27 32.632 141.27 29.538C141.27 26.58 140.318 24.098 138.414 22.092C136.51 20.086 134.181 19.083 131.427 19.083C128.673 19.083 126.344 20.086 124.44 22.092C122.536 24.098 121.584 26.58 121.584 29.538ZM154.75 48L157.759 11.535H167.449L172.753 26.937L174.589 32.955H174.691C175.371 30.507 175.983 28.501 176.527 26.937L181.831 11.535H191.521L194.479 48H185.554L184.432 31.578C184.364 30.762 184.33 29.844 184.33 28.824C184.33 27.804 184.347 26.988 184.381 26.376L184.432 25.458H184.33C183.514 28.008 182.834 30.048 182.29 31.578L178.465 42.135H170.815L166.99 31.578L164.95 25.458H164.848C164.984 27.702 164.984 29.742 164.848 31.578L163.726 48H154.75Z" fill="white"/>
<path d="M2.322 73V53.83H5.805V61.957H14.58V53.83H18.036V73H14.58V64.954H5.805V73H2.322ZM21.0644 66.115C21.0644 63.991 21.7124 62.263 23.0084 60.931C24.3224 59.581 26.0144 58.906 28.0844 58.906C29.9924 58.906 31.4864 59.527 32.5664 60.769C33.6464 61.993 34.1864 63.55 34.1864 65.44C34.1864 65.746 34.1504 66.187 34.0784 66.763H24.6014C24.7094 67.915 25.1504 68.815 25.9244 69.463C26.6984 70.093 27.6344 70.408 28.7324 70.408C30.1004 70.408 31.4144 69.904 32.6744 68.896L34.0244 71.353C33.3404 71.965 32.4944 72.451 31.4864 72.811C30.4964 73.153 29.4974 73.324 28.4894 73.324C26.2754 73.324 24.4844 72.631 23.1164 71.245C21.7484 69.841 21.0644 68.131 21.0644 66.115ZM24.6824 64.414H30.7574C30.7394 63.514 30.4694 62.803 29.9474 62.281C29.4434 61.759 28.7954 61.498 28.0034 61.498C27.1394 61.498 26.4104 61.768 25.8164 62.308C25.2224 62.83 24.8444 63.532 24.6824 64.414ZM40.5757 70.246H45.6787V61.984H42.2497V62.632C42.2497 65.854 41.6917 68.392 40.5757 70.246ZM35.4457 70.246H37.1467C38.3707 68.446 38.9827 65.728 38.9827 62.092V59.23H49.1077V70.246H51.0787V76.24H47.9737V73H38.6317V76.24H35.4457V70.246ZM53.5684 73V59.23H59.9674C61.3894 59.23 62.5144 59.545 63.3424 60.175C64.1884 60.787 64.6114 61.66 64.6114 62.794C64.6114 63.442 64.4494 64.045 64.1254 64.603C63.8194 65.143 63.3784 65.548 62.8024 65.818V65.845C63.5944 66.043 64.1974 66.439 64.6114 67.033C65.0254 67.609 65.2324 68.266 65.2324 69.004C65.2324 70.318 64.7554 71.317 63.8014 72.001C62.8654 72.667 61.6324 73 60.1024 73H53.5684ZM56.9974 64.9H59.2384C59.8684 64.9 60.3454 64.738 60.6694 64.414C60.9934 64.072 61.1554 63.631 61.1554 63.091C61.1554 62.011 60.4984 61.471 59.1844 61.471H56.9974V64.9ZM56.9974 70.732H59.5084C60.2464 70.732 60.8044 70.57 61.1824 70.246C61.5784 69.904 61.7764 69.454 61.7764 68.896C61.7764 68.32 61.5784 67.87 61.1824 67.546C60.7864 67.204 60.2284 67.033 59.5084 67.033H56.9974V70.732ZM68.0967 73V59.23H71.3637V66.601C71.3637 67.267 71.3367 67.816 71.2827 68.248H71.3367C71.4087 68.086 71.7507 67.537 72.3627 66.601L77.4657 59.23H80.7867V73H77.5197V65.656C77.5197 65.26 77.5467 64.711 77.6007 64.009H77.5467C77.4927 64.135 77.1507 64.684 76.5207 65.656L71.4177 73H68.0967ZM82.9858 73L87.1978 65.926V65.872L83.3368 59.23H86.9008L89.9518 64.576H91.6258V59.23H94.8388V64.576H96.5128L99.5638 59.23H103.128L99.2938 65.872V65.926L103.506 73H99.7258L96.5668 67.465H94.8388V73H91.6258V67.465H89.8978L86.7388 73H82.9858ZM105.67 73V59.23H108.937V66.601C108.937 67.267 108.91 67.816 108.856 68.248H108.91C108.982 68.086 109.324 67.537 109.936 66.601L115.039 59.23H118.36V73H115.093V65.656C115.093 65.26 115.12 64.711 115.174 64.009H115.12C115.066 64.135 114.724 64.684 114.094 65.656L108.991 73H105.67ZM121.477 73L122.719 59.23H126.607L129.523 66.331L130.198 68.086H130.252C130.504 67.438 130.729 66.853 130.927 66.331L133.897 59.23H137.731L138.973 73H135.679L135.193 65.548L135.22 63.199H135.166C134.914 63.883 134.644 64.549 134.356 65.197L131.656 71.272H128.821L126.121 65.224L125.284 63.199H125.23L125.257 65.548L124.771 73H121.477ZM143.459 71.299C142.001 69.931 141.272 68.203 141.272 66.115C141.272 64.027 142.001 62.308 143.459 60.958C144.917 59.59 146.699 58.906 148.805 58.906C150.929 58.906 152.72 59.59 154.178 60.958C155.654 62.308 156.392 64.027 156.392 66.115C156.392 68.203 155.663 69.931 154.205 71.299C152.747 72.649 150.956 73.324 148.832 73.324C146.708 73.324 144.917 72.649 143.459 71.299ZM144.755 66.115C144.755 67.375 145.142 68.41 145.916 69.22C146.708 70.012 147.68 70.408 148.832 70.408C149.984 70.408 150.956 70.012 151.748 69.22C152.54 68.41 152.936 67.375 152.936 66.115C152.936 64.873 152.531 63.847 151.721 63.037C150.929 62.227 149.966 61.822 148.832 61.822C147.698 61.822 146.735 62.227 145.943 63.037C145.151 63.847 144.755 64.873 144.755 66.115ZM158.385 66.115C158.385 64.099 159.069 62.398 160.437 61.012C161.823 59.608 163.632 58.906 165.864 58.906C166.854 58.906 167.826 59.077 168.78 59.419C169.734 59.761 170.526 60.274 171.156 60.958L169.617 63.307C168.627 62.317 167.439 61.822 166.053 61.822C164.811 61.822 163.803 62.236 163.029 63.064C162.255 63.874 161.868 64.882 161.868 66.088C161.868 67.294 162.264 68.32 163.056 69.166C163.848 69.994 164.883 70.408 166.161 70.408C167.655 70.408 169.005 69.823 170.211 68.653L171.534 71.083C170.886 71.767 170.049 72.316 169.023 72.73C168.015 73.126 166.962 73.324 165.864 73.324C163.632 73.324 161.823 72.64 160.437 71.272C159.069 69.886 158.385 68.167 158.385 66.115ZM177.227 73V62.146H172.691V59.23H185.192V62.146H180.629V73H177.227ZM187.514 73V59.23H190.943V63.955H193.508C195.146 63.955 196.415 64.351 197.315 65.143C198.233 65.917 198.692 67.042 198.692 68.518C198.692 69.904 198.26 71.002 197.396 71.812C196.532 72.604 195.227 73 193.481 73H187.514ZM190.943 70.651H192.941C193.697 70.651 194.264 70.453 194.642 70.057C195.038 69.661 195.236 69.139 195.236 68.491C195.236 67.825 195.038 67.294 194.642 66.898C194.246 66.484 193.661 66.277 192.887 66.277H190.943V70.651Z" fill="#CFA55B"/>
</svg>
