<svg width="37" height="37" viewBox="0 0 37 37" fill="none" xmlns="http://www.w3.org/2000/svg">
<path d="M35.8438 11.5625H1.15631C0.51804 11.5625 9.53674e-05 11.0445 9.53674e-05 10.4063C9.53674e-05 9.76801 0.518135 9.25006 1.15631 9.25006H35.8438C36.4821 9.25006 37 9.7681 37 10.4063C37 11.0445 36.482 11.5625 35.8438 11.5625Z" fill="white"/>
<path d="M1.15631 17.3438H35.8438C36.4821 17.3438 37 17.8618 37 18.5C37 19.1382 36.482 19.6562 35.8438 19.6562H1.15631C0.51804 19.6562 9.53674e-05 19.1382 9.53674e-05 18.5C9.53674e-05 17.8618 0.51804 17.3438 1.15631 17.3438Z" fill="white"/>
<path d="M1.1563 25.4375H24.2813C24.9196 25.4375 25.4375 25.9556 25.4375 26.5938C25.4375 27.232 24.9195 27.75 24.2813 27.75H1.1563C0.518028 27.75 8.39233e-05 27.2319 8.39233e-05 26.5938C-1.33514e-05 25.9555 0.518028 25.4375 1.1563 25.4375Z" fill="white"/>
</svg>
